# Blender 4.2.3 LTS
# www.blender.org
mtllib tree.mtl
o Cube
v -0.842953 2.395014 -0.621098
v -0.842953 -2.395014 -0.621098
v -0.842953 2.395014 0.621098
v -0.842953 -2.395014 0.621098
v 0.842953 2.395014 -0.621098
v 0.842953 -2.395014 -0.621098
v 0.842953 2.395014 0.621098
v 0.842953 -2.395014 0.621098
vn -0.0000 1.0000 -0.0000
vn -0.0000 -0.0000 1.0000
vn 1.0000 -0.0000 -0.0000
vn -0.0000 -1.0000 -0.0000
vn -1.0000 -0.0000 -0.0000
vn -0.0000 -0.0000 -1.0000
vt 0.625000 0.500000
vt 0.875000 0.500000
vt 0.875000 0.750000
vt 0.625000 0.750000
vt 0.375000 0.750000
vt 0.625000 1.000000
vt 0.375000 1.000000
vt 0.375000 0.000000
vt 0.625000 0.000000
vt 0.625000 0.250000
vt 0.375000 0.250000
vt 0.125000 0.500000
vt 0.375000 0.500000
vt 0.125000 0.750000
s 0
usemtl Material
f 1/1/1 3/4/1 7/3/1 5/2/1
f 4/5/2 8/7/2 7/6/2 3/4/2
f 8/8/3 6/11/3 5/10/3 7/9/3
f 6/12/4 8/14/4 4/5/4 2/13/4
f 2/13/5 4/5/5 3/4/5 1/1/5
f 6/11/6 2/13/6 1/1/6 5/10/6
o Cone
v 0.099010 0.752395 -2.051262
v 1.556151 0.593200 -1.417773
v 2.135273 0.468976 0.065163
v 1.497133 0.452491 1.528863
v 0.015545 0.553402 2.115911
v 0.421499 4.804644 0.237876
v -1.441597 0.712597 1.482423
v -2.020719 0.836822 -0.000513
v -1.382578 0.853307 -1.464213
vn -0.7918 0.5078 -0.3395
vn 0.3994 0.4266 -0.8115
vn -0.8057 0.4746 0.3544
vn -0.3262 0.4079 0.8528
vn 0.3658 0.3466 0.8637
vn 0.8650 0.3267 0.3808
vn -0.2926 0.4879 -0.8224
vn 0.8789 0.3599 -0.3131
vn -0.0873 -0.9950 -0.0493
s 0
usemtl Material.001
f 16//7 14//7 17//7
f 9//8 14//8 10//8
f 15//9 14//9 16//9
f 13//10 14//10 15//10
f 12//11 14//11 13//11
f 11//12 14//12 12//12
f 17//13 14//13 9//13
f 10//14 14//14 11//14
f 9//15 10//15 11//15 12//15 13//15 15//15 16//15 17//15
o Cone.001
v 0.252872 2.607318 -1.398445
v 1.318621 2.490883 -0.935113
v 1.742189 2.400025 0.149502
v 1.275455 2.387969 1.220047
v 0.191826 2.461775 1.649414
v 0.488740 5.571120 0.275824
v -0.873923 2.578209 1.186082
v -1.297491 2.669067 0.101467
v -0.830757 2.681124 -0.969079
vn -0.7918 0.5078 -0.3395
vn 0.3994 0.4266 -0.8115
vn -0.8057 0.4746 0.3544
vn -0.3262 0.4079 0.8528
vn 0.3658 0.3466 0.8637
vn 0.8650 0.3267 0.3808
vn -0.2926 0.4879 -0.8224
vn 0.8789 0.3599 -0.3131
vn -0.0873 -0.9950 -0.0493
s 0
usemtl Material.001
f 25//16 23//16 26//16
f 18//17 23//17 19//17
f 24//18 23//18 25//18
f 22//19 23//19 24//19
f 21//20 23//20 22//20
f 20//21 23//21 21//21
f 26//22 23//22 18//22
f 19//23 23//23 20//23
f 18//24 19//24 20//24 21//24 22//24 24//24 25//24 26//24
o Cone.002
v 0.368968 4.031044 -0.770858
v -0.543050 4.097723 -0.501617
v -0.932181 4.098261 0.177032
v -0.570474 4.032342 0.867546
v 0.330186 3.938581 1.165432
v 0.506215 5.770323 0.285687
v 1.242205 3.871902 0.896191
v 1.631335 3.871365 0.217542
v 1.269628 3.937283 -0.472972
vn 0.7936 0.4834 -0.3695
vn -0.2067 0.5198 -0.8289
vn 0.7772 0.4445 0.4453
vn 0.2867 0.3922 0.8740
vn -0.2406 0.4389 0.8657
vn -0.7007 0.5753 0.4220
vn 0.3206 0.4732 -0.8206
vn -0.6844 0.6142 -0.3929
vn -0.0873 -0.9950 -0.0493
s 0
usemtl Material.001
f 34//25 35//25 32//25
f 27//26 28//26 32//26
f 33//27 34//27 32//27
f 31//28 33//28 32//28
f 30//29 31//29 32//29
f 29//30 30//30 32//30
f 35//31 27//31 32//31
f 28//32 29//32 32//32
f 27//33 35//33 34//33 33//33 31//33 30//33 29//33 28//33
o Cylinder
v 0.000000 -1.000000 -0.630390
v 0.000000 1.000000 -0.630390
v 0.445753 -1.000000 -0.445753
v 0.445753 1.000000 -0.445753
v 0.630390 -1.000000 0.000000
v 0.630390 1.000000 -0.000000
v 0.445753 -1.000000 0.445753
v 0.445753 1.000000 0.445753
v 0.000000 -1.000000 0.630390
v 0.000000 1.000000 0.630390
v -0.445753 -1.000000 0.445753
v -0.445753 1.000000 0.445753
v -0.630390 -1.000000 0.000000
v -0.630390 1.000000 -0.000000
v -0.445753 -1.000000 -0.445753
v -0.445753 1.000000 -0.445753
vn 0.3827 -0.0000 -0.9239
vn 0.9239 -0.0000 -0.3827
vn 0.9239 -0.0000 0.3827
vn 0.3827 -0.0000 0.9239
vn -0.3827 -0.0000 0.9239
vn -0.9239 -0.0000 0.3827
vn -0.0000 1.0000 -0.0000
vn -0.3827 -0.0000 -0.9239
vn -0.9239 -0.0000 -0.3827
vn -0.0000 -1.0000 -0.0000
s 0
usemtl Material.002
f 36//34 37//34 39//34 38//34
f 38//35 39//35 41//35 40//35
f 40//36 41//36 43//36 42//36
f 42//37 43//37 45//37 44//37
f 44//38 45//38 47//38 46//38
f 46//39 47//39 49//39 48//39
f 39//40 37//40 51//40 49//40 47//40 45//40 43//40 41//40
f 50//41 51//41 37//41 36//41
f 48//42 49//42 51//42 50//42
f 36//43 38//43 40//43 42//43 44//43 46//43 48//43 50//43
